;TYPE=PLATED
;Layer: PTH_Through_Via
;EasyEDA Pro Client v2.2.45.4, 2026-04-13 17:31:44
;Gerber Generator version 0.3
M48
METRIC,LZ,0000.00000
;Hole size 1 = 0.30500 METRIC
T01C0.30500
%
G05
G90
T01
X14.478Y-15.1129
X14.351Y-21.082
X14.986Y-28.829
X18.542Y-36.449
X24.13Y-14.224
X23.876Y0.889
X23.2021Y-14.986
X4.521Y-18.42948
X4.572Y-17.15948
X15.67307Y-14.66223
X-6.87955Y-7.74275
X14.732Y-11.684
X20.193Y-35.433
X31.31964Y-12.39611
X25.781Y-18.542
X1.016Y-13.589
X3.937Y-10.795
X3.93327Y-9.54321
X-1.397Y-14.986
X-1.508Y-18.034
X-0.23801Y-24.003
X-8.382Y-22.733
X-8.382Y-19.431
X-8.382Y-16.129
X-2.794Y-0.254
X0.381Y-10.033
X-5.207Y-4.699
X0.88463Y-1.59079
X14.86557Y-34.30515
X16.56113Y-32.2123
X15.79419Y-32.27016
X18.669Y-15.875
X14.224Y-28.956
X17.145Y-21.01822
X12.77087Y-29.08688
X17.272Y-20.066
X12.00887Y-29.083
X15.25905Y-28.067
X11.35888Y-28.321
X10.05891Y-28.321
X9.77899Y-37.34997
X10.668Y-29.083
X9.324Y-29.00095
X7.52495Y-32.30295
X6.096Y-32.004
X14.351Y-39.49286
X17.14513Y-21.844
X19.431Y-45.4659
X21.6533Y-59.69
X17.798Y-26.779
X15.748Y-46.101
X10.668Y-42.545
X14.224Y-55.82171
X13.65618Y-56.828
X18.1743Y-57.35539
X18.161Y-58.42
X4.115Y-46.482
X20.7963Y-60.5057
X20.36801Y-55.79685
X23.749Y-63.92027
X20.955Y-64.135
X17.57735Y-64.02322
X16.91997Y-67.06197
X15.91041Y-62.611
X15.478Y-51.61287
X9.36605Y-47.52995
X8.19404Y-42.799
X13.208Y-60.57369
X21.971Y-52.832
X18.56178Y-54.76885
X15.99227Y-52.67512
X21.209Y-49.784
X22.86Y-66.04
X0.889Y-66.294
X12.75128Y-11.89594
X18.91774Y-5.72948
X6.76439Y-52.8019
X7.366Y-54.483
X12.7Y-52.197
X4.191Y-62.484
X5.334Y-49.276
X17.018Y-46.736
X10.795Y-46.482
X11.811Y-46.609
X10.57972Y-44.61572
X7.239Y-44.61946
X7.366Y-61.65884
X4.699Y-36.44743
X18.796Y-10.922
X18.923Y-9.525
X4.699Y-58.42
X3.429Y-58.42
X3.81Y-5.842
X3.953Y-8.56309
X5.334Y-50.292
X1.5661Y-55.7951
X6.41865Y-7.05365
X6.604Y-50.21351
X5.71513Y-25.13152
X4.572Y-15.494
X5.461Y-28.448
X17.78Y-11.811
X16.90014Y-14.57298
X12.065Y-18.542
X10.541Y-16.129
X6.35Y-38.989
X7.43154Y-42.2004
X11.303Y-59.69
X13.208Y-40.132
X15.494Y-39.37
X18.542Y-17.78
X16.51Y-19.685
X20.955Y-32.766
X6.35Y-35.052
X18.85958Y-39.30642
X24.83985Y-25.94525
X4.521Y-19.69948
X19.67165Y-42.16429
X17.04509Y-42.672
X4.318Y-20.96948
X17.018Y-43.942
X16.383Y-51.562
X22.225Y-22.352
X9.525Y-26.289
X3.937Y-21.717
M30