G04 Layer: InnerLayer2*
G04 EasyEDA Pro v2.2.45.4, 2026-04-13 17:31:44*
G04 Gerber Generator version 0.3*
G04 Scale: 100 percent, Rotated: No, Reflected: No*
G04 Dimensions in millimeters*
G04 Leading zeros omitted, absolute positions, 4 integers and 5 decimals*
G04 Generated by one-click*
%FSLAX45Y45*%
%MOMM*%
%ADD10C,1.6*%
%ADD11R,1.6764X1.6764*%
%ADD12C,1.6764*%
%ADD13C,1.0*%
%ADD14O,1.1X2.0*%
%ADD15O,1.2X1.8*%
%ADD16C,1.5238*%
%ADD17C,1.524*%
%ADD18R,1.524X1.524*%
%ADD19C,0.61*%
%ADD20C,0.254*%
%ADD21C,0.5*%
%ADD22C,0.8*%
%ADD23C,0.35*%
G75*


G04 Pad Start*
G54D10*
G01X65100Y-6248400D03*
G01X265100Y-6248400D03*
G54D11*
G01X-203200Y-889000D03*
G54D12*
G01X-203200Y-635000D03*
G54D13*
G01X1734403Y-6991629D03*
G01X1904406Y-6991629D03*
G54D14*
G01X710502Y-6446888D03*
G01X1575499Y-6446888D03*
G54D15*
G01X710502Y-6866903D03*
G01X1575499Y-6866903D03*
G54D17*
G01X2286000Y-5676900D03*
G01X2286000Y-5422900D03*
G01X2286000Y-5168900D03*
G01X2286000Y-4914900D03*
G01X2286000Y-4660900D03*
G01X2286000Y-4406900D03*
G01X2286000Y-4152900D03*
G01X2286000Y-3898900D03*
G01X2286000Y-3644900D03*
G01X2286000Y-3390900D03*
G01X2286000Y-3136900D03*
G54D18*
G01X2286000Y-2882900D03*
G54D17*
G01X0Y-2882900D03*
G01X0Y-3136900D03*
G01X0Y-3390900D03*
G01X0Y-3644900D03*
G01X0Y-3898900D03*
G01X0Y-4152900D03*
G01X0Y-4406900D03*
G01X0Y-4660900D03*
G01X0Y-4914900D03*
G01X0Y-5168900D03*
G01X0Y-5422900D03*
G54D18*
G01X0Y-5676900D03*
G04 Pad End*

G04 Via Start*
G54D19*
G01X1447800Y-1511290D03*
G01X1435100Y-2108200D03*
G01X1498600Y-2882900D03*
G01X1854200Y-3644900D03*
G01X2413000Y-1422400D03*
G01X2387600Y88900D03*
G01X2320210Y-1498600D03*
G01X452100Y-1842948D03*
G01X457200Y-1715948D03*
G01X1567307Y-1466223D03*
G01X-687955Y-774275D03*
G01X1473200Y-1168400D03*
G01X2019300Y-3543300D03*
G01X3131964Y-1239611D03*
G01X2578100Y-1854200D03*
G01X101600Y-1358900D03*
G01X393700Y-1079500D03*
G01X393327Y-954321D03*
G01X-139700Y-1498600D03*
G01X-150800Y-1803400D03*
G01X-23801Y-2400300D03*
G01X-838200Y-2273300D03*
G01X-838200Y-1943100D03*
G01X-838200Y-1612900D03*
G01X-279400Y-25400D03*
G01X38100Y-1003300D03*
G01X-520700Y-469900D03*
G01X88463Y-159079D03*
G01X1486557Y-3430515D03*
G01X1656113Y-3221230D03*
G01X1579419Y-3227016D03*
G01X1866900Y-1587500D03*
G01X1422400Y-2895600D03*
G01X1714500Y-2101822D03*
G01X1277087Y-2908688D03*
G01X1727200Y-2006600D03*
G01X1200887Y-2908300D03*
G01X1525905Y-2806700D03*
G01X1135888Y-2832100D03*
G01X1005891Y-2832100D03*
G01X977899Y-3734997D03*
G01X1066800Y-2908300D03*
G01X932400Y-2900095D03*
G01X752495Y-3230295D03*
G01X609600Y-3200400D03*
G01X1435100Y-3949286D03*
G01X1714513Y-2184400D03*
G01X1943100Y-4546590D03*
G01X2165330Y-5969000D03*
G01X1779800Y-2677900D03*
G01X1574800Y-4610100D03*
G01X1066800Y-4254500D03*
G01X1422400Y-5582171D03*
G01X1365618Y-5682800D03*
G01X1817430Y-5735539D03*
G01X1816100Y-5842000D03*
G01X411500Y-4648200D03*
G01X2079630Y-6050570D03*
G01X2036801Y-5579685D03*
G01X2374900Y-6392027D03*
G01X2095500Y-6413500D03*
G01X1757735Y-6402322D03*
G01X1691997Y-6706197D03*
G01X1591041Y-6261100D03*
G01X1547800Y-5161287D03*
G01X936605Y-4752995D03*
G01X819404Y-4279900D03*
G01X1320800Y-6057369D03*
G01X2197100Y-5283200D03*
G01X1856178Y-5476885D03*
G01X1599227Y-5267512D03*
G01X2120900Y-4978400D03*
G01X2286000Y-6604000D03*
G01X88900Y-6629400D03*
G01X1275128Y-1189594D03*
G01X1891774Y-572948D03*
G01X676439Y-5280190D03*
G01X736600Y-5448300D03*
G01X1270000Y-5219700D03*
G01X419100Y-6248400D03*
G01X533400Y-4927600D03*
G01X1701800Y-4673600D03*
G01X1079500Y-4648200D03*
G01X1181100Y-4660900D03*
G01X1057972Y-4461572D03*
G01X723900Y-4461946D03*
G01X736600Y-6165884D03*
G01X469900Y-3644743D03*
G01X1879600Y-1092200D03*
G01X1892300Y-952500D03*
G01X469900Y-5842000D03*
G01X342900Y-5842000D03*
G01X381000Y-584200D03*
G01X395300Y-856309D03*
G01X533400Y-5029200D03*
G01X156610Y-5579510D03*
G01X641865Y-705365D03*
G01X660400Y-5021351D03*
G01X571513Y-2513152D03*
G01X457200Y-1549400D03*
G01X546100Y-2844800D03*
G01X1778000Y-1181100D03*
G01X1690014Y-1457298D03*
G01X1206500Y-1854200D03*
G01X1054100Y-1612900D03*
G01X635000Y-3898900D03*
G01X743154Y-4220040D03*
G01X1130300Y-5969000D03*
G01X1320800Y-4013200D03*
G01X1549400Y-3937000D03*
G01X1854200Y-1778000D03*
G01X1651000Y-1968500D03*
G01X2095500Y-3276600D03*
G01X635000Y-3505200D03*
G01X1885958Y-3930642D03*
G01X2483985Y-2594525D03*
G01X452100Y-1969948D03*
G01X1967165Y-4216429D03*
G01X1704509Y-4267200D03*
G01X431800Y-2096948D03*
G01X1701800Y-4394200D03*
G01X1638300Y-5156200D03*
G01X2222500Y-2235200D03*
G01X952500Y-2628900D03*
G01X393700Y-2171700D03*
G04 Via End*

G04 Track Start*
G54D20*
G01X1960900Y-3519110D02*
G01X1960900Y-3538200D01*
G01X1995110Y-3484900D02*
G01X1960900Y-3519110D01*
G01X2014200Y-3484900D02*
G01X1995110Y-3484900D01*
G01X2258100Y-3241000D02*
G01X2014200Y-3484900D01*
G01X2329120Y-3241000D02*
G01X2258100Y-3241000D01*
G01X2413000Y-3157120D02*
G01X2329120Y-3241000D01*
G01X2413000Y-1422400D02*
G01X2413000Y-3157120D01*
G01X2109403Y-180989D02*
G01X2109403Y-189297D01*
G01X2160894Y-129499D02*
G01X2109403Y-180989D01*
G01X2169201Y-129499D02*
G01X2160894Y-129499D01*
G01X2387600Y88900D02*
G01X2169201Y-129499D01*
G01X1938000Y-1116390D02*
G01X2320210Y-1498600D01*
G01X1699026Y-858500D02*
G01X1931236Y-858500D01*
G01X841578Y-1715948D02*
G01X1699026Y-858500D01*
G01X1938000Y-1084146D02*
G01X1938000Y-1116390D01*
G01X1986300Y-1035846D02*
G01X1938000Y-1084146D01*
G01X1986300Y-913564D02*
G01X1986300Y-1035846D01*
G01X1931236Y-858500D02*
G01X1986300Y-913564D01*
G01X457200Y-1715948D02*
G01X841578Y-1715948D01*
G01X101600Y-1551000D02*
G01X101600Y-1358900D01*
G01X-23801Y-2400300D02*
G01X393700Y-1982799D01*
G01X874000Y-2580400D02*
G01X1866900Y-1587500D01*
G01X874000Y-2924285D02*
G01X874000Y-2580400D01*
G01X908210Y-2958495D02*
G01X874000Y-2924285D01*
G01X1034405Y-2958495D02*
G01X908210Y-2958495D01*
G01X1042610Y-2966700D02*
G01X1034405Y-2958495D01*
G01X1252508Y-2966700D02*
G01X1042610Y-2966700D01*
G01X1350911Y-2967089D02*
G01X1252897Y-2967089D01*
G01X1422400Y-2895600D02*
G01X1350911Y-2967089D01*
G01X1252897Y-2967089D02*
G01X1252508Y-2966700D01*
G01X1553009Y-2632767D02*
G01X1553009Y-2263314D01*
G01X1277087Y-2908688D02*
G01X1553009Y-2632767D01*
G01X1553009Y-2263314D02*
G01X1714500Y-2101822D01*
G01X1384300Y-2616200D02*
G01X1384300Y-2349500D01*
G01X1200887Y-2799613D02*
G01X1384300Y-2616200D01*
G01X1200887Y-2908300D02*
G01X1200887Y-2799613D01*
G01X1058595Y-2900095D02*
G01X1066800Y-2908300D01*
G01X932400Y-2900095D02*
G01X1058595Y-2900095D01*
G01X1435100Y-3949286D02*
G01X1714513Y-3669874D01*
G01X1779800Y-5583470D02*
G01X2165330Y-5969000D01*
G01X1779800Y-4834190D02*
G01X1779800Y-5583470D01*
G01X1643400Y-4697790D02*
G01X1779800Y-4834190D01*
G01X1379336Y-4545254D02*
G01X1607664Y-4545254D01*
G01X1205290Y-4719300D02*
G01X1379336Y-4545254D01*
G01X1021100Y-4624010D02*
G01X1021100Y-4672390D01*
G01X1779800Y-3865310D02*
G01X1021100Y-4624010D01*
G01X1779800Y-2677900D02*
G01X1779800Y-3865310D01*
G01X1643400Y-4580990D02*
G01X1643400Y-4697790D01*
G01X1607664Y-4545254D02*
G01X1643400Y-4580990D01*
G01X1156910Y-4719300D02*
G01X1205290Y-4719300D01*
G01X1144210Y-4706600D02*
G01X1156910Y-4719300D01*
G01X1055310Y-4706600D02*
G01X1144210Y-4706600D01*
G01X1021100Y-4672390D02*
G01X1055310Y-4706600D01*
G54D21*
G01X2171700Y-5283200D02*
G01X2197100Y-5283200D01*
G01X2374900Y-6392027D02*
G01X2349500Y-6366627D01*
G01X2146300Y-5308600D02*
G01X2171700Y-5283200D01*
G01X2146300Y-5702300D02*
G01X2146300Y-5308600D01*
G01X2156500Y-5712500D02*
G01X2146300Y-5702300D01*
G01X2156500Y-5720020D02*
G01X2156500Y-5712500D01*
G01X2217480Y-5781000D02*
G01X2156500Y-5720020D01*
G01X2225000Y-5781000D02*
G01X2217480Y-5781000D01*
G01X2349500Y-5905500D02*
G01X2225000Y-5781000D01*
G01X2349500Y-6366627D02*
G01X2349500Y-5905500D01*
G54D22*
G01X2183803Y-6706197D02*
G01X2286000Y-6604000D01*
G01X165697Y-6706197D02*
G01X1691997Y-6706197D01*
G01X88900Y-6629400D02*
G01X165697Y-6706197D01*
G01X431800Y-6261100D02*
G01X419100Y-6248400D01*
G01X1591041Y-6261100D02*
G01X431800Y-6261100D01*
G54D20*
G01X819404Y-4635794D02*
G01X936605Y-4752995D01*
G01X819404Y-4279900D02*
G01X819404Y-4635794D01*
G54D21*
G01X736600Y-5689600D02*
G01X298000Y-6128200D01*
G01X736600Y-5448300D02*
G01X736600Y-5689600D01*
G01X298000Y-6128200D02*
G01X215311Y-6128200D01*
G01X144900Y-6198612D01*
G01X144900Y-6248400D01*
G01X65100Y-6248400D01*
G54D20*
G01X2181900Y-3855780D02*
G01X2242880Y-3794800D01*
G01X2181900Y-4193500D02*
G01X2181900Y-3855780D01*
G01X2286000Y-3497680D02*
G01X2286000Y-3390900D01*
G01X2390100Y-3601780D02*
G01X2286000Y-3497680D01*
G01X2390100Y-3688020D02*
G01X2390100Y-3601780D01*
G01X2283320Y-3794800D02*
G01X2390100Y-3688020D01*
G01X2242880Y-3794800D02*
G01X2283320Y-3794800D01*
G01X1701800Y-4673600D02*
G01X2181900Y-4193500D01*
G01X2082800Y-3644900D02*
G01X2286000Y-3644900D01*
G01X1079500Y-4648200D02*
G01X2082800Y-3644900D01*
G01X469900Y-3644743D02*
G01X469900Y-2374900D01*
G01X342900Y-3915364D02*
G01X342900Y-2419310D01*
G01X326436Y-3898900D02*
G01X0Y-3898900D01*
G01X342900Y-3915364D02*
G01X326436Y-3898900D01*
G01X1950700Y-1021100D02*
G01X1879600Y-1092200D01*
G01X1950700Y-928310D02*
G01X1950700Y-1021100D01*
G01X1868110Y-894100D02*
G01X1916490Y-894100D01*
G01X342900Y-2419310D02*
G01X1868110Y-894100D01*
G01X1916490Y-894100D02*
G01X1950700Y-928310D01*
G01X469900Y-2374900D02*
G01X1892300Y-952500D01*
G01X342900Y-5842000D02*
G01X342900Y-3915364D01*
G01X1960900Y-3538200D02*
G01X1854200Y-3644900D01*
G54D22*
G01X1691997Y-6706197D02*
G01X2183803Y-6706197D01*
G54D20*
G01X-150800Y-1803400D02*
G01X101600Y-1551000D01*
G01X469900Y-5842000D02*
G01X469900Y-3644743D01*
G01X393700Y-1982799D02*
G01X393700Y-1079500D01*
G01X1384300Y-2349500D02*
G01X1727200Y-2006600D01*
G01X1714513Y-3669874D02*
G01X1714513Y-2184400D01*
G01X2109403Y-189297D02*
G01X749300Y-1549400D01*
G01X457200Y-1549400D01*
G01X546100Y-2844800D02*
G01X1778000Y-1612900D01*
G01X1778000Y-1181100D01*
G01X0Y-2667000D02*
G01X1054100Y-1612900D01*
G01X0Y-4152900D02*
G01X0Y-4046120D01*
G01X-104100Y-3942020D01*
G01X-104100Y-3855780D01*
G01X-43120Y-3794800D01*
G01X-2680Y-3794800D01*
G01X104100Y-2839780D02*
G01X0Y-2735680D01*
G01X0Y-2667000D01*
G01X-2680Y-3794800D02*
G01X104100Y-3688020D01*
G01X104100Y-2839780D01*
G54D23*
G01X0Y-6540500D02*
G01X88900Y-6629400D01*
G01X0Y-2882900D02*
G01X0Y-2989680D01*
G01X0Y-6464300D02*
G01X0Y-6540500D01*
G01X-139700Y-5624743D02*
G01X-139700Y-6324600D01*
G01X0Y-6464300D01*
G01X-92851Y-5560500D02*
G01X-116400Y-5584049D01*
G01X-116400Y-5601443D01*
G01X-139700Y-5624743D01*
G01X104100Y-5483900D02*
G01X27500Y-5560500D01*
G01X-92851Y-5560500D01*
G01X116400Y-5471114D02*
G01X104100Y-5483414D01*
G01X104100Y-5483900D01*
G01X116400Y-4358686D02*
G01X116400Y-5471114D01*
G01X-52900Y-4290500D02*
G01X48214Y-4290500D01*
G01X116400Y-4358686D01*
G01X-152400Y-4191000D02*
G01X-52900Y-4290500D01*
G01X0Y-2989680D02*
G01X-6788Y-2989680D01*
G01X-152400Y-3135292D01*
G01X-152400Y-4191000D01*
G54D20*
G01X743154Y-4220040D02*
G01X743154Y-4007054D01*
G01X635000Y-3898900D01*
G01X1320800Y-4013200D02*
G01X1473200Y-4013200D01*
G01X1549400Y-3937000D01*
G01X2095500Y-2413000D02*
G01X2095500Y-3276600D01*
G01X1651000Y-1968500D02*
G01X1682710Y-1968500D01*
G01X1703010Y-1948200D01*
G01X1751390Y-1948200D01*
G01X1785600Y-1982410D01*
G01X1785600Y-2103100D01*
G01X2095500Y-2413000D01*
G01X1220036Y-4754900D02*
G01X1394082Y-4580854D01*
G01X1545554Y-4580854D01*
G01X1574800Y-4610100D01*
G01X635000Y-3505200D02*
G01X985500Y-3855700D01*
G01X985500Y-4687136D01*
G01X1053264Y-4754900D01*
G01X1220036Y-4754900D01*
G01X1755281Y-4216429D02*
G01X1704509Y-4267200D01*
G01X1967165Y-4216429D02*
G01X1755281Y-4216429D01*
G01X1638300Y-5156200D02*
G01X1744200Y-5262100D01*
G01X1744200Y-5598216D01*
G01X1765054Y-5619070D01*
G01X1765054Y-5705324D01*
G01X1759030Y-5711349D01*
G01X1759030Y-5816480D01*
G01X1757700Y-5817810D01*
G01X1757700Y-5866190D01*
G01X1791910Y-5900400D01*
G01X2141140Y-6027400D02*
G01X2189520Y-6027400D01*
G01X2223730Y-5993190D01*
G01X2223730Y-5944810D01*
G01X1914578Y-5452695D02*
G01X1880368Y-5418485D01*
G01X1880368Y-5066532D01*
G01X2286000Y-4660900D01*
G01X1791910Y-5900400D02*
G01X2014140Y-5900400D01*
G01X2141140Y-6027400D01*
G01X2223730Y-5944810D02*
G01X1914578Y-5635658D01*
G01X1914578Y-5452695D01*
G01X2222500Y-2235200D02*
G01X1981200Y-2235200D01*
G01X1821200Y-2075200D01*
G01X1821200Y-1967664D01*
G01X1732909Y-1879373D01*
G01X1625373Y-1879373D01*
G01X952500Y-2552246D02*
G01X952500Y-2628900D01*
G01X1625373Y-1879373D02*
G01X1493500Y-2011246D01*
G01X1493500Y-2132390D01*
G01X1459290Y-2166600D01*
G01X1338146Y-2166600D01*
G01X952500Y-2552246D01*
G04 Track End*

M02*

