G04 Layer: TopPasteMaskLayer*
G04 EasyEDA Pro v2.2.45.4, 2026-04-13 17:31:44*
G04 Gerber Generator version 0.3*
G04 Scale: 100 percent, Rotated: No, Reflected: No*
G04 Dimensions in millimeters*
G04 Leading zeros omitted, absolute positions, 4 integers and 5 decimals*
G04 Generated by one-click*
%FSLAX45Y45*%
%MOMM*%
%ADD10R,2.159X2.7432*%
%ADD11R,1.8X1.7*%
%ADD12R,1.25001X1.0*%
%ADD13R,1.0X1.39954*%
%ADD14R,1.0X1.25001*%
%ADD15R,1.25001X0.7*%
%ADD16R,0.7X1.25001*%
%ADD17R,2.2X1.2*%
%ADD18R,1.3X1.7*%
%ADD19O,0.5615X1.74501*%
%ADD20O,0.55999X1.74501*%
%ADD21R,0.35001X2.49999*%
%ADD22R,2.1X0.95001*%
%ADD23R,0.95001X2.1*%
%ADD24R,0.9X0.9*%
G75*


G04 PolygonModel Start*
G36*
G01X544653Y-5895387D02*
G01X672652Y-5895387D01*
G01X677653Y-5900388D01*
G01X677653Y-6015389D01*
G01X672652Y-6020388D01*
G01X631648Y-6020891D01*
G01X631648Y-5975890D01*
G01X586650Y-5975890D01*
G01X586650Y-6019890D01*
G01X544653Y-6020388D01*
G01X539652Y-6015389D01*
G01X539652Y-5900388D01*
G01X544653Y-5895387D01*
G37*
G36*
G01X672654Y-6236382D02*
G01X544656Y-6236382D01*
G01X539655Y-6231381D01*
G01X539655Y-6116380D01*
G01X544656Y-6111381D01*
G01X585659Y-6110878D01*
G01X585659Y-6155879D01*
G01X630658Y-6155879D01*
G01X630658Y-6111879D01*
G01X672654Y-6111381D01*
G01X677655Y-6116380D01*
G01X677655Y-6231381D01*
G01X672654Y-6236382D01*
G37*
G36*
G01X172403Y-4851900D02*
G01X172403Y-4723902D01*
G01X177404Y-4718901D01*
G01X292405Y-4718901D01*
G01X297404Y-4723902D01*
G01X297906Y-4764905D01*
G01X252905Y-4764905D01*
G01X252905Y-4809904D01*
G01X296906Y-4809904D01*
G01X297404Y-4851900D01*
G01X292405Y-4856902D01*
G01X177404Y-4856902D01*
G01X172403Y-4851900D01*
G37*
G36*
G01X513398Y-4723900D02*
G01X513398Y-4851898D01*
G01X508396Y-4856899D01*
G01X393395Y-4856899D01*
G01X388396Y-4851898D01*
G01X387894Y-4810895D01*
G01X432895Y-4810895D01*
G01X432895Y-4765896D01*
G01X388894Y-4765896D01*
G01X388396Y-4723900D01*
G01X393395Y-4718898D01*
G01X508396Y-4718898D01*
G01X513398Y-4723900D01*
G37*
G36*
G01X714804Y-3407496D02*
G01X714804Y-3279498D01*
G01X719806Y-3274497D01*
G01X834807Y-3274497D01*
G01X839805Y-3279498D01*
G01X840308Y-3320501D01*
G01X795307Y-3320501D01*
G01X795307Y-3365500D01*
G01X839307Y-3365500D01*
G01X839805Y-3407496D01*
G01X834807Y-3412498D01*
G01X719806Y-3412498D01*
G01X714804Y-3407496D01*
G37*
G36*
G01X1055799Y-3279496D02*
G01X1055799Y-3407494D01*
G01X1050798Y-3412495D01*
G01X935797Y-3412495D01*
G01X930798Y-3407494D01*
G01X930295Y-3366491D01*
G01X975297Y-3366491D01*
G01X975297Y-3321492D01*
G01X931296Y-3321492D01*
G01X930798Y-3279496D01*
G01X935797Y-3274494D01*
G01X1050798Y-3274494D01*
G01X1055799Y-3279496D01*
G37*
G36*
G01X705803Y-3632700D02*
G01X705803Y-3504702D01*
G01X710804Y-3499701D01*
G01X825805Y-3499701D01*
G01X830804Y-3504702D01*
G01X831306Y-3545705D01*
G01X786305Y-3545705D01*
G01X786305Y-3590704D01*
G01X830306Y-3590704D01*
G01X830804Y-3632700D01*
G01X825805Y-3637702D01*
G01X710804Y-3637702D01*
G01X705803Y-3632700D01*
G37*
G36*
G01X1046798Y-3504700D02*
G01X1046798Y-3632698D01*
G01X1041796Y-3637699D01*
G01X926795Y-3637699D01*
G01X921796Y-3632698D01*
G01X921294Y-3591695D01*
G01X966295Y-3591695D01*
G01X966295Y-3546696D01*
G01X922294Y-3546696D01*
G01X921796Y-3504700D01*
G01X926795Y-3499698D01*
G01X1041796Y-3499698D01*
G01X1046798Y-3504700D01*
G37*
G36*
G01X1003800Y-4551997D02*
G01X875802Y-4551997D01*
G01X870801Y-4546996D01*
G01X870801Y-4431995D01*
G01X875802Y-4426996D01*
G01X916805Y-4426494D01*
G01X916805Y-4471495D01*
G01X961804Y-4471495D01*
G01X961804Y-4427494D01*
G01X1003800Y-4426996D01*
G01X1008802Y-4431995D01*
G01X1008802Y-4546996D01*
G01X1003800Y-4551997D01*
G37*
G36*
G01X875800Y-4211002D02*
G01X1003798Y-4211002D01*
G01X1008799Y-4216004D01*
G01X1008799Y-4331005D01*
G01X1003798Y-4336004D01*
G01X962795Y-4336506D01*
G01X962795Y-4291505D01*
G01X917796Y-4291505D01*
G01X917796Y-4335506D01*
G01X875800Y-4336004D01*
G01X870798Y-4331005D01*
G01X870798Y-4216004D01*
G01X875800Y-4211002D01*
G37*
G36*
G01X1773461Y-4850732D02*
G01X1773461Y-4722734D01*
G01X1778462Y-4717732D01*
G01X1893463Y-4717732D01*
G01X1898462Y-4722734D01*
G01X1898965Y-4763737D01*
G01X1853964Y-4763737D01*
G01X1853964Y-4808736D01*
G01X1897964Y-4808736D01*
G01X1898462Y-4850732D01*
G01X1893463Y-4855733D01*
G01X1778462Y-4855733D01*
G01X1773461Y-4850732D01*
G37*
G36*
G01X2114456Y-4722731D02*
G01X2114456Y-4850729D01*
G01X2109455Y-4855731D01*
G01X1994454Y-4855731D01*
G01X1989455Y-4850729D01*
G01X1988952Y-4809726D01*
G01X2033953Y-4809726D01*
G01X2033953Y-4764728D01*
G01X1989953Y-4764728D01*
G01X1989455Y-4722731D01*
G01X1994454Y-4717730D01*
G01X2109455Y-4717730D01*
G01X2114456Y-4722731D01*
G37*
G36*
G01X693103Y-4001000D02*
G01X693103Y-3873002D01*
G01X698104Y-3868001D01*
G01X813105Y-3868001D01*
G01X818104Y-3873002D01*
G01X818606Y-3914005D01*
G01X773605Y-3914005D01*
G01X773605Y-3959004D01*
G01X817606Y-3959004D01*
G01X818104Y-4001000D01*
G01X813105Y-4006002D01*
G01X698104Y-4006002D01*
G01X693103Y-4001000D01*
G37*
G36*
G01X1034098Y-3873000D02*
G01X1034098Y-4000998D01*
G01X1029096Y-4005999D01*
G01X914095Y-4005999D01*
G01X909096Y-4000998D01*
G01X908594Y-3959995D01*
G01X953595Y-3959995D01*
G01X953595Y-3914996D01*
G01X909594Y-3914996D01*
G01X909096Y-3873000D01*
G01X914095Y-3867998D01*
G01X1029096Y-3867998D01*
G01X1034098Y-3873000D01*
G37*
G36*
G01X1080000Y-6227902D02*
G01X952002Y-6227902D01*
G01X947001Y-6222901D01*
G01X947001Y-6107900D01*
G01X952002Y-6102901D01*
G01X993005Y-6102398D01*
G01X993005Y-6147399D01*
G01X1038004Y-6147399D01*
G01X1038004Y-6103399D01*
G01X1080000Y-6102901D01*
G01X1085002Y-6107900D01*
G01X1085002Y-6222901D01*
G01X1080000Y-6227902D01*
G37*
G36*
G01X1080000Y-6012901D02*
G01X1038004Y-6012899D01*
G01X1038004Y-5968401D01*
G01X993005Y-5968401D01*
G01X993005Y-6012398D01*
G01X952002Y-6012901D01*
G01X947001Y-6007900D01*
G01X947001Y-5892902D01*
G01X952002Y-5887900D01*
G01X1080000Y-5887900D01*
G01X1085002Y-5892902D01*
G01X1085002Y-6007900D01*
G01X1080000Y-6012901D01*
G37*
G36*
G01X2024202Y-5320800D02*
G01X2024202Y-5448798D01*
G01X2019201Y-5453799D01*
G01X1904200Y-5453799D01*
G01X1899201Y-5448798D01*
G01X1898698Y-5407795D01*
G01X1943699Y-5407795D01*
G01X1943699Y-5362796D01*
G01X1899699Y-5362796D01*
G01X1899201Y-5320800D01*
G01X1904200Y-5315798D01*
G01X2019201Y-5315798D01*
G01X2024202Y-5320800D01*
G37*
G36*
G01X1809201Y-5320800D02*
G01X1809199Y-5362796D01*
G01X1764701Y-5362796D01*
G01X1764701Y-5407795D01*
G01X1808698Y-5407795D01*
G01X1809201Y-5448798D01*
G01X1804200Y-5453799D01*
G01X1689202Y-5453799D01*
G01X1684200Y-5448798D01*
G01X1684200Y-5320800D01*
G01X1689202Y-5315798D01*
G01X1804200Y-5315798D01*
G01X1809201Y-5320800D01*
G37*
G36*
G01X1797723Y-4371096D02*
G01X1797723Y-4243098D01*
G01X1802724Y-4238097D01*
G01X1917725Y-4238097D01*
G01X1922724Y-4243098D01*
G01X1923227Y-4284101D01*
G01X1878226Y-4284101D01*
G01X1878226Y-4329100D01*
G01X1922226Y-4329100D01*
G01X1922724Y-4371096D01*
G01X1917725Y-4376097D01*
G01X1802724Y-4376097D01*
G01X1797723Y-4371096D01*
G37*
G36*
G01X2012724Y-4371096D02*
G01X2012726Y-4329100D01*
G01X2057225Y-4329100D01*
G01X2057225Y-4284101D01*
G01X2013227Y-4284101D01*
G01X2012724Y-4243098D01*
G01X2017725Y-4238097D01*
G01X2132724Y-4238097D01*
G01X2137725Y-4243098D01*
G01X2137725Y-4371096D01*
G01X2132724Y-4376097D01*
G01X2017725Y-4376097D01*
G01X2012724Y-4371096D01*
G37*
G36*
G01X1303198Y-4572500D02*
G01X1303198Y-4444502D01*
G01X1308199Y-4439501D01*
G01X1423200Y-4439501D01*
G01X1428199Y-4444502D01*
G01X1428702Y-4485505D01*
G01X1383701Y-4485505D01*
G01X1383701Y-4530504D01*
G01X1427701Y-4530504D01*
G01X1428199Y-4572500D01*
G01X1423200Y-4577502D01*
G01X1308199Y-4577502D01*
G01X1303198Y-4572500D01*
G37*
G36*
G01X1518199Y-4572500D02*
G01X1518201Y-4530504D01*
G01X1562699Y-4530504D01*
G01X1562699Y-4485505D01*
G01X1518702Y-4485505D01*
G01X1518199Y-4444502D01*
G01X1523200Y-4439501D01*
G01X1638198Y-4439501D01*
G01X1643200Y-4444502D01*
G01X1643200Y-4572500D01*
G01X1638198Y-4577502D01*
G01X1523200Y-4577502D01*
G01X1518199Y-4572500D01*
G37*
G36*
G01X1653959Y-4320706D02*
G01X1525961Y-4320706D01*
G01X1520960Y-4315705D01*
G01X1520960Y-4200704D01*
G01X1525961Y-4195705D01*
G01X1566964Y-4195202D01*
G01X1566964Y-4240204D01*
G01X1611963Y-4240204D01*
G01X1611963Y-4196203D01*
G01X1653959Y-4195705D01*
G01X1658960Y-4200704D01*
G01X1658960Y-4315705D01*
G01X1653959Y-4320706D01*
G37*
G36*
G01X1653959Y-4105706D02*
G01X1611963Y-4105703D01*
G01X1611963Y-4061205D01*
G01X1566964Y-4061205D01*
G01X1566964Y-4105203D01*
G01X1525961Y-4105706D01*
G01X1520960Y-4100704D01*
G01X1520960Y-3985706D01*
G01X1525961Y-3980705D01*
G01X1653959Y-3980705D01*
G01X1658960Y-3985706D01*
G01X1658960Y-4100704D01*
G01X1653959Y-4105706D01*
G37*
G36*
G01X1478102Y-4063500D02*
G01X1478102Y-4191498D01*
G01X1473101Y-4196499D01*
G01X1358100Y-4196499D01*
G01X1353101Y-4191498D01*
G01X1352598Y-4150495D01*
G01X1397599Y-4150495D01*
G01X1397599Y-4105496D01*
G01X1353599Y-4105496D01*
G01X1353101Y-4063500D01*
G01X1358100Y-4058498D01*
G01X1473101Y-4058498D01*
G01X1478102Y-4063500D01*
G37*
G36*
G01X1263101Y-4063500D02*
G01X1263099Y-4105496D01*
G01X1218601Y-4105496D01*
G01X1218601Y-4150495D01*
G01X1262598Y-4150495D01*
G01X1263101Y-4191498D01*
G01X1258100Y-4196499D01*
G01X1143102Y-4196499D01*
G01X1138100Y-4191498D01*
G01X1138100Y-4063500D01*
G01X1143102Y-4058498D01*
G01X1258100Y-4058498D01*
G01X1263101Y-4063500D01*
G37*
G36*
G01X-168839Y-19002D02*
G01X-168839Y108996D01*
G01X-163838Y113998D01*
G01X-48837Y113998D01*
G01X-43838Y108996D01*
G01X-43335Y67993D01*
G01X-88336Y67993D01*
G01X-88336Y22995D01*
G01X-44336Y22995D01*
G01X-43838Y-19002D01*
G01X-48837Y-24003D01*
G01X-163838Y-24003D01*
G01X-168839Y-19002D01*
G37*
G36*
G01X46162Y-19002D02*
G01X46165Y22995D01*
G01X90663Y22995D01*
G01X90663Y67993D01*
G01X46665Y67993D01*
G01X46162Y108996D01*
G01X51163Y113998D01*
G01X166162Y113998D01*
G01X171163Y108996D01*
G01X171163Y-19002D01*
G01X166162Y-24003D01*
G01X51163Y-24003D01*
G01X46162Y-19002D01*
G37*
G36*
G01X158466Y-254602D02*
G01X158466Y-382600D01*
G01X153464Y-387601D01*
G01X38463Y-387601D01*
G01X33465Y-382600D01*
G01X32962Y-341597D01*
G01X77963Y-341597D01*
G01X77963Y-296598D01*
G01X33962Y-296598D01*
G01X33465Y-254602D01*
G01X38463Y-249601D01*
G01X153464Y-249601D01*
G01X158466Y-254602D01*
G37*
G36*
G01X-56535Y-254602D02*
G01X-56538Y-296598D01*
G01X-101036Y-296598D01*
G01X-101036Y-341597D01*
G01X-57038Y-341597D01*
G01X-56535Y-382600D01*
G01X-61537Y-387601D01*
G01X-176535Y-387601D01*
G01X-181536Y-382600D01*
G01X-181536Y-254602D01*
G01X-176535Y-249601D01*
G01X-61537Y-249601D01*
G01X-56535Y-254602D01*
G37*
G36*
G01X2268398Y-1715000D02*
G01X2268398Y-1587002D01*
G01X2273399Y-1582001D01*
G01X2388400Y-1582001D01*
G01X2393399Y-1587002D01*
G01X2393902Y-1628005D01*
G01X2348901Y-1628005D01*
G01X2348901Y-1673004D01*
G01X2392901Y-1673004D01*
G01X2393399Y-1715000D01*
G01X2388400Y-1720002D01*
G01X2273399Y-1720002D01*
G01X2268398Y-1715000D01*
G37*
G36*
G01X2483399Y-1715000D02*
G01X2483401Y-1673004D01*
G01X2527899Y-1673004D01*
G01X2527899Y-1628005D01*
G01X2483902Y-1628005D01*
G01X2483399Y-1587002D01*
G01X2488400Y-1582001D01*
G01X2603398Y-1582001D01*
G01X2608400Y-1587002D01*
G01X2608400Y-1715000D01*
G01X2603398Y-1720002D01*
G01X2488400Y-1720002D01*
G01X2483399Y-1715000D01*
G37*
G36*
G01X2661323Y-2155276D02*
G01X2661323Y-2027278D01*
G01X2666324Y-2022277D01*
G01X2781325Y-2022277D01*
G01X2786324Y-2027278D01*
G01X2786827Y-2068281D01*
G01X2741826Y-2068281D01*
G01X2741826Y-2113280D01*
G01X2785826Y-2113280D01*
G01X2786324Y-2155276D01*
G01X2781325Y-2160278D01*
G01X2666324Y-2160278D01*
G01X2661323Y-2155276D01*
G37*
G36*
G01X2876324Y-2155276D02*
G01X2876326Y-2113280D01*
G01X2920825Y-2113280D01*
G01X2920825Y-2068281D01*
G01X2876827Y-2068281D01*
G01X2876324Y-2027278D01*
G01X2881325Y-2022277D01*
G01X2996324Y-2022277D01*
G01X3001325Y-2027278D01*
G01X3001325Y-2155276D01*
G01X2996324Y-2160278D01*
G01X2881325Y-2160278D01*
G01X2876324Y-2155276D01*
G37*
G36*
G01X2458898Y12200D02*
G01X2458898Y140198D01*
G01X2463899Y145199D01*
G01X2578900Y145199D01*
G01X2583899Y140198D01*
G01X2584402Y99195D01*
G01X2539401Y99195D01*
G01X2539401Y54196D01*
G01X2583401Y54196D01*
G01X2583899Y12200D01*
G01X2578900Y7198D01*
G01X2463899Y7198D01*
G01X2458898Y12200D01*
G37*
G36*
G01X2673899Y12200D02*
G01X2673901Y54196D01*
G01X2718399Y54196D01*
G01X2718399Y99195D01*
G01X2674402Y99195D01*
G01X2673899Y140198D01*
G01X2678900Y145199D01*
G01X2793898Y145199D01*
G01X2798900Y140198D01*
G01X2798900Y12200D01*
G01X2793898Y7198D01*
G01X2678900Y7198D01*
G01X2673899Y12200D01*
G37*
G36*
G01X3301966Y-1050976D02*
G01X3301966Y-1178974D01*
G01X3296964Y-1183975D01*
G01X3181963Y-1183975D01*
G01X3176965Y-1178974D01*
G01X3176462Y-1137971D01*
G01X3221463Y-1137971D01*
G01X3221463Y-1092972D01*
G01X3177463Y-1092972D01*
G01X3176965Y-1050976D01*
G01X3181963Y-1045975D01*
G01X3296964Y-1045975D01*
G01X3301966Y-1050976D01*
G37*
G36*
G01X3086965Y-1050976D02*
G01X3086962Y-1092972D01*
G01X3042464Y-1092972D01*
G01X3042464Y-1137971D01*
G01X3086462Y-1137971D01*
G01X3086965Y-1178974D01*
G01X3081964Y-1183975D01*
G01X2966965Y-1183975D01*
G01X2961964Y-1178974D01*
G01X2961964Y-1050976D01*
G01X2966965Y-1045975D01*
G01X3081964Y-1045975D01*
G01X3086965Y-1050976D01*
G37*
G36*
G01X1283007Y-6446896D02*
G01X1283007Y-6336896D01*
G01X1253005Y-6336896D01*
G01X1253005Y-6446896D01*
G01X1283007Y-6446896D01*
G37*
G36*
G01X1303017Y-6336896D02*
G01X1303017Y-6446896D01*
G01X1333020Y-6446896D01*
G01X1333020Y-6336896D01*
G01X1303017Y-6336896D01*
G37*
G36*
G01X792998Y-6336896D02*
G01X792998Y-6446896D01*
G01X852998Y-6446896D01*
G01X852998Y-6336896D01*
G01X792998Y-6336896D01*
G37*
G36*
G01X1232995Y-6446896D02*
G01X1232995Y-6336896D01*
G01X1202992Y-6336896D01*
G01X1202992Y-6446896D01*
G01X1232995Y-6446896D01*
G37*
G36*
G01X1353017Y-6336896D02*
G01X1353017Y-6446896D01*
G01X1413017Y-6446896D01*
G01X1413017Y-6336896D01*
G01X1353017Y-6336896D01*
G37*
G36*
G01X1493002Y-6446896D02*
G01X1493002Y-6336896D01*
G01X1433002Y-6336896D01*
G01X1433002Y-6446896D01*
G01X1493002Y-6446896D01*
G37*
G36*
G01X1183008Y-6446896D02*
G01X1183008Y-6336896D01*
G01X1153005Y-6336896D01*
G01X1153005Y-6446896D01*
G01X1183008Y-6446896D01*
G37*
G36*
G01X1132995Y-6446896D02*
G01X1132995Y-6336896D01*
G01X1102992Y-6336896D01*
G01X1102992Y-6446896D01*
G01X1132995Y-6446896D01*
G37*
G36*
G01X873008Y-6336896D02*
G01X873008Y-6446896D01*
G01X933008Y-6446896D01*
G01X933008Y-6336896D01*
G01X873008Y-6336896D01*
G37*
G36*
G01X1083008Y-6446896D02*
G01X1083008Y-6336896D01*
G01X1053005Y-6336896D01*
G01X1053005Y-6446896D01*
G01X1083008Y-6446896D01*
G37*
G36*
G01X1033021Y-6446896D02*
G01X1033021Y-6336896D01*
G01X1003018Y-6336896D01*
G01X1003018Y-6446896D01*
G01X1033021Y-6446896D01*
G37*
G36*
G01X983008Y-6446896D02*
G01X983008Y-6336896D01*
G01X953005Y-6336896D01*
G01X953005Y-6446896D01*
G01X983008Y-6446896D01*
G37*
G36*
G01X1579982Y-6347056D02*
G01X1576995Y-6346906D01*
G01X1574002Y-6346906D01*
G01X1571015Y-6347056D01*
G01X1568039Y-6347353D01*
G01X1565079Y-6347800D01*
G01X1562148Y-6348392D01*
G01X1559248Y-6349131D01*
G01X1556390Y-6350013D01*
G01X1553578Y-6351036D01*
G01X1550822Y-6352197D01*
G01X1548125Y-6353495D01*
G01X1545499Y-6354928D01*
G01X1542946Y-6356487D01*
G01X1540474Y-6358171D01*
G01X1538089Y-6359980D01*
G01X1535798Y-6361902D01*
G01X1533604Y-6363937D01*
G01X1531516Y-6366078D01*
G01X1529535Y-6368321D01*
G01X1527670Y-6370660D01*
G01X1525925Y-6373089D01*
G01X1524302Y-6375603D01*
G01X1522806Y-6378194D01*
G01X1521440Y-6380856D01*
G01X1520210Y-6383581D01*
G01X1519118Y-6386368D01*
G01X1518163Y-6389202D01*
G01X1517353Y-6392083D01*
G01X1516687Y-6394999D01*
G01X1516169Y-6397945D01*
G01X1515796Y-6400914D01*
G01X1515572Y-6403899D01*
G01X1515499Y-6406888D01*
G01X1515499Y-6486888D01*
G01X1515572Y-6489878D01*
G01X1515796Y-6492862D01*
G01X1516169Y-6495832D01*
G01X1516687Y-6498778D01*
G01X1517353Y-6501694D01*
G01X1518163Y-6504574D01*
G01X1519118Y-6507409D01*
G01X1520210Y-6510195D01*
G01X1521440Y-6512921D01*
G01X1522806Y-6515583D01*
G01X1524302Y-6518173D01*
G01X1525925Y-6520688D01*
G01X1527670Y-6523116D01*
G01X1529535Y-6525456D01*
G01X1531516Y-6527698D01*
G01X1533604Y-6529840D01*
G01X1535798Y-6531874D01*
G01X1538089Y-6533797D01*
G01X1540474Y-6535605D01*
G01X1542946Y-6537289D01*
G01X1545499Y-6538849D01*
G01X1548125Y-6540282D01*
G01X1550822Y-6541579D01*
G01X1553578Y-6542740D01*
G01X1556390Y-6543764D01*
G01X1559248Y-6544645D01*
G01X1562148Y-6545384D01*
G01X1565079Y-6545976D01*
G01X1568039Y-6546423D01*
G01X1571015Y-6546720D01*
G01X1574002Y-6546870D01*
G01X1576995Y-6546870D01*
G01X1579982Y-6546720D01*
G01X1582958Y-6546423D01*
G01X1585918Y-6545976D01*
G01X1588849Y-6545384D01*
G01X1591749Y-6544645D01*
G01X1594607Y-6543764D01*
G01X1597419Y-6542740D01*
G01X1600175Y-6541579D01*
G01X1602872Y-6540282D01*
G01X1605498Y-6538849D01*
G01X1608051Y-6537289D01*
G01X1610523Y-6535605D01*
G01X1612908Y-6533797D01*
G01X1615199Y-6531874D01*
G01X1617393Y-6529840D01*
G01X1619481Y-6527698D01*
G01X1621462Y-6525456D01*
G01X1623327Y-6523116D01*
G01X1625072Y-6520688D01*
G01X1626695Y-6518173D01*
G01X1628191Y-6515583D01*
G01X1629557Y-6512921D01*
G01X1630787Y-6510195D01*
G01X1631879Y-6507409D01*
G01X1632834Y-6504574D01*
G01X1633644Y-6501694D01*
G01X1634310Y-6498778D01*
G01X1634828Y-6495832D01*
G01X1635201Y-6492862D01*
G01X1635425Y-6489878D01*
G01X1635498Y-6486888D01*
G01X1635498Y-6406888D01*
G01X1635425Y-6403899D01*
G01X1635201Y-6400914D01*
G01X1634828Y-6397945D01*
G01X1634310Y-6394999D01*
G01X1633644Y-6392083D01*
G01X1632834Y-6389202D01*
G01X1631879Y-6386368D01*
G01X1630787Y-6383581D01*
G01X1629557Y-6380856D01*
G01X1628191Y-6378194D01*
G01X1626695Y-6375603D01*
G01X1625072Y-6373089D01*
G01X1623327Y-6370660D01*
G01X1621462Y-6368321D01*
G01X1619481Y-6366078D01*
G01X1617393Y-6363937D01*
G01X1615199Y-6361902D01*
G01X1612908Y-6359980D01*
G01X1610523Y-6358171D01*
G01X1608051Y-6356487D01*
G01X1605498Y-6354928D01*
G01X1602872Y-6353495D01*
G01X1600175Y-6352197D01*
G01X1597419Y-6351036D01*
G01X1594607Y-6350013D01*
G01X1591749Y-6349131D01*
G01X1588849Y-6348392D01*
G01X1585918Y-6347800D01*
G01X1582958Y-6347353D01*
G01X1579982Y-6347056D01*
G37*
G36*
G01X709005Y-6346906D02*
G01X706018Y-6347056D01*
G01X703042Y-6347353D01*
G01X700082Y-6347800D01*
G01X697151Y-6348392D01*
G01X694251Y-6349131D01*
G01X691393Y-6350013D01*
G01X688581Y-6351036D01*
G01X685825Y-6352197D01*
G01X683128Y-6353495D01*
G01X680502Y-6354928D01*
G01X677949Y-6356487D01*
G01X675477Y-6358171D01*
G01X673092Y-6359980D01*
G01X670801Y-6361902D01*
G01X668607Y-6363937D01*
G01X666519Y-6366078D01*
G01X664538Y-6368321D01*
G01X662673Y-6370660D01*
G01X660928Y-6373089D01*
G01X659305Y-6375603D01*
G01X657809Y-6378194D01*
G01X656443Y-6380856D01*
G01X655213Y-6383581D01*
G01X654121Y-6386368D01*
G01X653166Y-6389202D01*
G01X652356Y-6392083D01*
G01X651690Y-6394999D01*
G01X651172Y-6397945D01*
G01X650799Y-6400914D01*
G01X650575Y-6403899D01*
G01X650502Y-6406888D01*
G01X650502Y-6486888D01*
G01X650575Y-6489878D01*
G01X650799Y-6492862D01*
G01X651172Y-6495832D01*
G01X651690Y-6498778D01*
G01X652356Y-6501694D01*
G01X653166Y-6504574D01*
G01X654121Y-6507409D01*
G01X655213Y-6510195D01*
G01X656443Y-6512921D01*
G01X657809Y-6515583D01*
G01X659305Y-6518173D01*
G01X660928Y-6520688D01*
G01X662673Y-6523116D01*
G01X664538Y-6525456D01*
G01X666519Y-6527698D01*
G01X668607Y-6529840D01*
G01X670801Y-6531874D01*
G01X673092Y-6533797D01*
G01X675477Y-6535605D01*
G01X677949Y-6537289D01*
G01X680502Y-6538849D01*
G01X683128Y-6540282D01*
G01X685825Y-6541579D01*
G01X688581Y-6542740D01*
G01X691393Y-6543764D01*
G01X694251Y-6544645D01*
G01X697151Y-6545384D01*
G01X700082Y-6545976D01*
G01X703042Y-6546423D01*
G01X706018Y-6546720D01*
G01X709005Y-6546870D01*
G01X711998Y-6546870D01*
G01X714985Y-6546720D01*
G01X717961Y-6546423D01*
G01X720921Y-6545976D01*
G01X723852Y-6545384D01*
G01X726752Y-6544645D01*
G01X729610Y-6543764D01*
G01X732422Y-6542740D01*
G01X735178Y-6541579D01*
G01X737875Y-6540282D01*
G01X740501Y-6538849D01*
G01X743054Y-6537289D01*
G01X745526Y-6535605D01*
G01X747911Y-6533797D01*
G01X750202Y-6531874D01*
G01X752396Y-6529840D01*
G01X754484Y-6527698D01*
G01X756465Y-6525456D01*
G01X758330Y-6523116D01*
G01X760075Y-6520688D01*
G01X761698Y-6518173D01*
G01X763194Y-6515583D01*
G01X764560Y-6512921D01*
G01X765790Y-6510195D01*
G01X766882Y-6507409D01*
G01X767837Y-6504574D01*
G01X768647Y-6501694D01*
G01X769313Y-6498778D01*
G01X769831Y-6495832D01*
G01X770204Y-6492862D01*
G01X770428Y-6489878D01*
G01X770501Y-6486888D01*
G01X770501Y-6406888D01*
G01X770428Y-6403899D01*
G01X770204Y-6400914D01*
G01X769831Y-6397945D01*
G01X769313Y-6394999D01*
G01X768647Y-6392083D01*
G01X767837Y-6389202D01*
G01X766882Y-6386368D01*
G01X765790Y-6383581D01*
G01X764560Y-6380856D01*
G01X763194Y-6378194D01*
G01X761698Y-6375603D01*
G01X760075Y-6373089D01*
G01X758330Y-6370660D01*
G01X756465Y-6368321D01*
G01X754484Y-6366078D01*
G01X752396Y-6363937D01*
G01X750202Y-6361902D01*
G01X747911Y-6359980D01*
G01X745526Y-6358171D01*
G01X743054Y-6356487D01*
G01X740501Y-6354928D01*
G01X737875Y-6353495D01*
G01X735178Y-6352197D01*
G01X732422Y-6351036D01*
G01X729610Y-6350013D01*
G01X726752Y-6349131D01*
G01X723852Y-6348392D01*
G01X720921Y-6347800D01*
G01X717961Y-6347353D01*
G01X714985Y-6347056D01*
G01X711998Y-6346906D01*
G01X709005Y-6346906D01*
G37*
G36*
G01X714985Y-6792072D02*
G01X711998Y-6791922D01*
G01X709005Y-6791922D01*
G01X706018Y-6792072D01*
G01X703042Y-6792369D01*
G01X700082Y-6792816D01*
G01X697151Y-6793408D01*
G01X694251Y-6794147D01*
G01X691393Y-6795028D01*
G01X688581Y-6796052D01*
G01X685825Y-6797213D01*
G01X683128Y-6798511D01*
G01X680502Y-6799943D01*
G01X677949Y-6801503D01*
G01X675477Y-6803187D01*
G01X673092Y-6804995D01*
G01X670801Y-6806918D01*
G01X668607Y-6808953D01*
G01X666519Y-6811094D01*
G01X664538Y-6813337D01*
G01X662673Y-6815676D01*
G01X660928Y-6818104D01*
G01X659305Y-6820619D01*
G01X657809Y-6823210D01*
G01X656443Y-6825872D01*
G01X655213Y-6828597D01*
G01X654121Y-6831383D01*
G01X653166Y-6834218D01*
G01X652356Y-6837098D01*
G01X651690Y-6840014D01*
G01X651172Y-6842961D01*
G01X650799Y-6845930D01*
G01X650575Y-6848914D01*
G01X650502Y-6851904D01*
G01X650502Y-6881904D01*
G01X650575Y-6884894D01*
G01X650799Y-6887878D01*
G01X651172Y-6890847D01*
G01X651690Y-6893794D01*
G01X652356Y-6896710D01*
G01X653166Y-6899590D01*
G01X654121Y-6902425D01*
G01X655213Y-6905211D01*
G01X656443Y-6907936D01*
G01X657809Y-6910598D01*
G01X659305Y-6913189D01*
G01X660928Y-6915704D01*
G01X662673Y-6918132D01*
G01X664538Y-6920471D01*
G01X666519Y-6922714D01*
G01X668607Y-6924855D01*
G01X670801Y-6926890D01*
G01X673092Y-6928813D01*
G01X675477Y-6930621D01*
G01X677949Y-6932305D01*
G01X680502Y-6933865D01*
G01X683128Y-6935297D01*
G01X685825Y-6936595D01*
G01X688581Y-6937756D01*
G01X691393Y-6938780D01*
G01X694251Y-6939661D01*
G01X697151Y-6940400D01*
G01X700082Y-6940992D01*
G01X703042Y-6941439D01*
G01X706018Y-6941736D01*
G01X709005Y-6941886D01*
G01X711998Y-6941886D01*
G01X714985Y-6941736D01*
G01X717961Y-6941439D01*
G01X720921Y-6940992D01*
G01X723852Y-6940400D01*
G01X726752Y-6939661D01*
G01X729610Y-6938780D01*
G01X732422Y-6937756D01*
G01X735178Y-6936595D01*
G01X737875Y-6935297D01*
G01X740501Y-6933865D01*
G01X743054Y-6932305D01*
G01X745526Y-6930621D01*
G01X747911Y-6928813D01*
G01X750202Y-6926890D01*
G01X752396Y-6924855D01*
G01X754484Y-6922714D01*
G01X756465Y-6920471D01*
G01X758330Y-6918132D01*
G01X760075Y-6915704D01*
G01X761698Y-6913189D01*
G01X763194Y-6910598D01*
G01X764560Y-6907936D01*
G01X765790Y-6905211D01*
G01X766882Y-6902425D01*
G01X767837Y-6899590D01*
G01X768647Y-6896710D01*
G01X769313Y-6893794D01*
G01X769831Y-6890847D01*
G01X770204Y-6887878D01*
G01X770428Y-6884894D01*
G01X770501Y-6881904D01*
G01X770501Y-6851904D01*
G01X770428Y-6848914D01*
G01X770204Y-6845930D01*
G01X769831Y-6842961D01*
G01X769313Y-6840014D01*
G01X768647Y-6837098D01*
G01X767837Y-6834218D01*
G01X766882Y-6831383D01*
G01X765790Y-6828597D01*
G01X764560Y-6825872D01*
G01X763194Y-6823210D01*
G01X761698Y-6820619D01*
G01X760075Y-6818104D01*
G01X758330Y-6815676D01*
G01X756465Y-6813337D01*
G01X754484Y-6811094D01*
G01X752396Y-6808953D01*
G01X750202Y-6806918D01*
G01X747911Y-6804995D01*
G01X745526Y-6803187D01*
G01X743054Y-6801503D01*
G01X740501Y-6799943D01*
G01X737875Y-6798511D01*
G01X735178Y-6797213D01*
G01X732422Y-6796052D01*
G01X729610Y-6795028D01*
G01X726752Y-6794147D01*
G01X723852Y-6793408D01*
G01X720921Y-6792816D01*
G01X717961Y-6792369D01*
G01X714985Y-6792072D01*
G37*
G36*
G01X1574002Y-6791922D02*
G01X1571015Y-6792072D01*
G01X1568039Y-6792369D01*
G01X1565079Y-6792816D01*
G01X1562148Y-6793408D01*
G01X1559248Y-6794147D01*
G01X1556390Y-6795028D01*
G01X1553578Y-6796052D01*
G01X1550822Y-6797213D01*
G01X1548125Y-6798511D01*
G01X1545499Y-6799943D01*
G01X1542946Y-6801503D01*
G01X1540474Y-6803187D01*
G01X1538089Y-6804995D01*
G01X1535798Y-6806918D01*
G01X1533604Y-6808953D01*
G01X1531516Y-6811094D01*
G01X1529535Y-6813337D01*
G01X1527670Y-6815676D01*
G01X1525925Y-6818104D01*
G01X1524302Y-6820619D01*
G01X1522806Y-6823210D01*
G01X1521440Y-6825872D01*
G01X1520210Y-6828597D01*
G01X1519118Y-6831383D01*
G01X1518163Y-6834218D01*
G01X1517353Y-6837098D01*
G01X1516687Y-6840014D01*
G01X1516169Y-6842961D01*
G01X1515796Y-6845930D01*
G01X1515572Y-6848914D01*
G01X1515499Y-6851904D01*
G01X1515499Y-6881904D01*
G01X1515572Y-6884894D01*
G01X1515796Y-6887878D01*
G01X1516169Y-6890847D01*
G01X1516687Y-6893794D01*
G01X1517353Y-6896710D01*
G01X1518163Y-6899590D01*
G01X1519118Y-6902425D01*
G01X1520210Y-6905211D01*
G01X1521440Y-6907936D01*
G01X1522806Y-6910598D01*
G01X1524302Y-6913189D01*
G01X1525925Y-6915704D01*
G01X1527670Y-6918132D01*
G01X1529535Y-6920471D01*
G01X1531516Y-6922714D01*
G01X1533604Y-6924855D01*
G01X1535798Y-6926890D01*
G01X1538089Y-6928813D01*
G01X1540474Y-6930621D01*
G01X1542946Y-6932305D01*
G01X1545499Y-6933865D01*
G01X1548125Y-6935297D01*
G01X1550822Y-6936595D01*
G01X1553578Y-6937756D01*
G01X1556390Y-6938780D01*
G01X1559248Y-6939661D01*
G01X1562148Y-6940400D01*
G01X1565079Y-6940992D01*
G01X1568039Y-6941439D01*
G01X1571015Y-6941736D01*
G01X1574002Y-6941886D01*
G01X1576995Y-6941886D01*
G01X1579982Y-6941736D01*
G01X1582958Y-6941439D01*
G01X1585918Y-6940992D01*
G01X1588849Y-6940400D01*
G01X1591749Y-6939661D01*
G01X1594607Y-6938780D01*
G01X1597419Y-6937756D01*
G01X1600175Y-6936595D01*
G01X1602872Y-6935297D01*
G01X1605498Y-6933865D01*
G01X1608051Y-6932305D01*
G01X1610523Y-6930621D01*
G01X1612908Y-6928813D01*
G01X1615199Y-6926890D01*
G01X1617393Y-6924855D01*
G01X1619481Y-6922714D01*
G01X1621462Y-6920471D01*
G01X1623327Y-6918132D01*
G01X1625072Y-6915704D01*
G01X1626695Y-6913189D01*
G01X1628191Y-6910598D01*
G01X1629557Y-6907936D01*
G01X1630787Y-6905211D01*
G01X1631879Y-6902425D01*
G01X1632834Y-6899590D01*
G01X1633644Y-6896710D01*
G01X1634310Y-6893794D01*
G01X1634828Y-6890847D01*
G01X1635201Y-6887878D01*
G01X1635425Y-6884894D01*
G01X1635498Y-6881904D01*
G01X1635498Y-6851904D01*
G01X1635425Y-6848914D01*
G01X1635201Y-6845930D01*
G01X1634828Y-6842961D01*
G01X1634310Y-6840014D01*
G01X1633644Y-6837098D01*
G01X1632834Y-6834218D01*
G01X1631879Y-6831383D01*
G01X1630787Y-6828597D01*
G01X1629557Y-6825872D01*
G01X1628191Y-6823210D01*
G01X1626695Y-6820619D01*
G01X1625072Y-6818104D01*
G01X1623327Y-6815676D01*
G01X1621462Y-6813337D01*
G01X1619481Y-6811094D01*
G01X1617393Y-6808953D01*
G01X1615199Y-6806918D01*
G01X1612908Y-6804995D01*
G01X1610523Y-6803187D01*
G01X1608051Y-6801503D01*
G01X1605498Y-6799943D01*
G01X1602872Y-6798511D01*
G01X1600175Y-6797213D01*
G01X1597419Y-6796052D01*
G01X1594607Y-6795028D01*
G01X1591749Y-6794147D01*
G01X1588849Y-6793408D01*
G01X1585918Y-6792816D01*
G01X1582958Y-6792369D01*
G01X1579982Y-6792072D01*
G01X1576995Y-6791922D01*
G01X1574002Y-6791922D01*
G37*
G36*
G01X1772603Y-4128000D02*
G01X1772603Y-4000002D01*
G01X1777604Y-3995001D01*
G01X1892605Y-3995001D01*
G01X1897604Y-4000002D01*
G01X1898106Y-4041005D01*
G01X1853105Y-4041005D01*
G01X1853105Y-4086004D01*
G01X1897106Y-4086004D01*
G01X1897604Y-4128000D01*
G01X1892605Y-4133002D01*
G01X1777604Y-4133002D01*
G01X1772603Y-4128000D01*
G37*
G36*
G01X2113598Y-4000000D02*
G01X2113598Y-4127998D01*
G01X2108596Y-4132999D01*
G01X1993595Y-4132999D01*
G01X1988596Y-4127998D01*
G01X1988094Y-4086995D01*
G01X2033095Y-4086995D01*
G01X2033095Y-4041996D01*
G01X1989094Y-4041996D01*
G01X1988596Y-4000000D01*
G01X1993595Y-3994998D01*
G01X2108596Y-3994998D01*
G01X2113598Y-4000000D01*
G37*
G36*
G01X1378237Y-6229698D02*
G01X1250239Y-6229698D01*
G01X1245238Y-6224697D01*
G01X1245238Y-6109696D01*
G01X1250239Y-6104697D01*
G01X1291242Y-6104194D01*
G01X1291242Y-6149195D01*
G01X1336241Y-6149195D01*
G01X1336241Y-6105195D01*
G01X1378237Y-6104697D01*
G01X1383238Y-6109696D01*
G01X1383238Y-6224697D01*
G01X1378237Y-6229698D01*
G37*
G36*
G01X1378237Y-6014697D02*
G01X1336241Y-6014695D01*
G01X1336241Y-5970196D01*
G01X1291242Y-5970196D01*
G01X1291242Y-6014194D01*
G01X1250239Y-6014697D01*
G01X1245238Y-6009696D01*
G01X1245238Y-5894697D01*
G01X1250239Y-5889696D01*
G01X1378237Y-5889696D01*
G01X1383238Y-5894697D01*
G01X1383238Y-6009696D01*
G01X1378237Y-6014697D01*
G37*

G04 Pad Start*
G54D10*
G01X2011680Y-5854700D03*
G01X1569720Y-5854700D03*
G54D11*
G01X2797353Y-355600D03*
G01X2358847Y-355600D03*
G01X2822753Y-1066800D03*
G01X2384247Y-1066800D03*
G01X2814824Y-715254D03*
G01X2376319Y-715254D03*
G54D12*
G01X1299718Y-5571185D03*
G01X1299718Y-5791200D03*
G54D13*
G01X1744593Y-5571884D03*
G01X1534535Y-5571884D03*
G01X1294935Y-5368985D03*
G01X1504993Y-5368985D03*
G54D14*
G01X2078502Y-4546590D03*
G01X1858488Y-4546590D03*
G54D15*
G01X2006759Y-3818990D03*
G01X2006759Y-3628998D03*
G01X1806759Y-3723994D03*
G01X2686304Y-1636700D03*
G01X2686304Y-1826692D03*
G01X2886304Y-1731696D03*
G54D16*
G01X3003804Y-798500D03*
G01X3193796Y-798500D03*
G01X3098800Y-598500D03*
G54D17*
G01X1930400Y-6476987D03*
G01X1930400Y-6726999D03*
G01X1930400Y-6227000D03*
G54D18*
G01X622300Y-4787900D03*
G01X1054100Y-4787900D03*
G01X1231900Y-4787900D03*
G01X1663700Y-4787900D03*
G01X-190500Y-2273300D03*
G01X-622300Y-2273300D03*
G01X-190500Y-1943100D03*
G01X-622300Y-1943100D03*
G01X-190500Y-1612900D03*
G01X-622300Y-1612900D03*
G54D20*
G01X215900Y-5710149D03*
G01X342900Y-5710149D03*
G01X469900Y-5710149D03*
G01X596900Y-5710149D03*
G01X723900Y-5710149D03*
G01X850900Y-5710149D03*
G01X977900Y-5710149D03*
G01X1104900Y-5710149D03*
G01X215900Y-5135651D03*
G01X342900Y-5135651D03*
G01X469900Y-5135651D03*
G01X596900Y-5135651D03*
G01X723900Y-5135651D03*
G01X850900Y-5135651D03*
G01X977900Y-5135651D03*
G01X1104900Y-5135651D03*
G54D21*
G01X680898Y-3073400D03*
G01X745896Y-3073400D03*
G01X810895Y-3073400D03*
G01X875894Y-3073400D03*
G01X940892Y-3073400D03*
G01X1005891Y-3073400D03*
G01X1070889Y-3073400D03*
G01X1135888Y-3073400D03*
G01X1200887Y-3073400D03*
G01X1265911Y-3073400D03*
G01X1330909Y-3073400D03*
G01X1395908Y-3073400D03*
G01X1460906Y-3073400D03*
G01X1525905Y-3073400D03*
G01X1590904Y-3073400D03*
G01X1655902Y-3073400D03*
G54D22*
G01X242989Y-572948D03*
G01X242989Y-699948D03*
G01X242989Y-826948D03*
G01X242989Y-953948D03*
G01X242989Y-1080948D03*
G01X242989Y-1207948D03*
G01X242989Y-1334948D03*
G01X242989Y-1461948D03*
G01X242989Y-1588948D03*
G01X242989Y-1715948D03*
G01X242989Y-1842948D03*
G01X242989Y-1969948D03*
G01X242989Y-2096948D03*
G01X242989Y-2223948D03*
G54D23*
G01X571513Y-2373452D03*
G01X698513Y-2373452D03*
G01X825513Y-2373452D03*
G01X952513Y-2373452D03*
G01X1079513Y-2373452D03*
G01X1206513Y-2373452D03*
G01X1333513Y-2373452D03*
G01X1460513Y-2373452D03*
G01X1587513Y-2373452D03*
G01X1714513Y-2373452D03*
G54D22*
G01X2043011Y-2223948D03*
G01X2043011Y-2096948D03*
G01X2043011Y-1969948D03*
G01X2043011Y-1842948D03*
G01X2043011Y-1715948D03*
G01X2043011Y-1588948D03*
G01X2043011Y-1461948D03*
G01X2043011Y-1334948D03*
G01X2043011Y-1207948D03*
G01X2043011Y-1080948D03*
G01X2043011Y-953948D03*
G01X2043011Y-826948D03*
G01X2043011Y-699948D03*
G01X2043011Y-572948D03*
G54D24*
G01X992975Y-1341044D03*
G01X852996Y-1341044D03*
G01X1133005Y-1341044D03*
G01X1133005Y-1201039D03*
G01X993000Y-1201039D03*
G01X852996Y-1201039D03*
G01X852996Y-1481049D03*
G01X993000Y-1481049D03*
G01X1133005Y-1481049D03*
G04 Pad End*

M02*

