G04 Layer: TopSolderMaskLayer*
G04 EasyEDA Pro v2.2.45.4, 2026-04-13 17:31:44*
G04 Gerber Generator version 0.3*
G04 Scale: 100 percent, Rotated: No, Reflected: No*
G04 Dimensions in millimeters*
G04 Leading zeros omitted, absolute positions, 4 integers and 5 decimals*
G04 Generated by one-click*
%FSLAX45Y45*%
%MOMM*%
%AMRoundRect*1,1,$1,$2,$3*1,1,$1,$4,$5*1,1,$1,0-$2,0-$3*1,1,$1,0-$4,0-$5*20,1,$1,$2,$3,$4,$5,0*20,1,$1,$4,$5,0-$2,0-$3,0*20,1,$1,0-$2,0-$3,0-$4,0-$5,0*20,1,$1,0-$4,0-$5,$2,$3,0*4,1,4,$2,$3,$4,$5,0-$2,0-$3,0-$4,0-$5,$2,$3,0*%
%ADD10RoundRect,0.09495X-0.67833X-0.70833X-0.67833X0.70833*%
%ADD11RoundRect,0.09495X-0.70833X0.67833X0.70833X0.67833*%
%ADD12C,1.7016*%
%ADD13RoundRect,0.09723X-1.08168X1.37378X1.08168X1.37378*%
%ADD14RoundRect,0.09618X-0.90271X0.85271X0.90271X0.85271*%
%ADD15RoundRect,0.09302X-0.62929X-0.50429X-0.62929X0.50429*%
%ADD16RoundRect,0.09302X-0.50429X0.70406X0.50429X0.70406*%
%ADD17RoundRect,0.0937X-0.50429X0.62929X0.50429X0.62929*%
%ADD18RoundRect,0.09302X-0.50429X0.62929X0.50429X0.62929*%
%ADD19RoundRect,0.09611X-0.84095X0.84095X0.84095X0.84095*%
%ADD20C,1.778*%
%ADD21RoundRect,0.09017X-0.63072X0.35571X0.63072X0.35571*%
%ADD22RoundRect,0.09017X-0.35571X-0.63072X-0.35571X0.63072*%
%ADD23RoundRect,0.09387X-0.69237X-0.57013X-0.69237X0.57013*%
%ADD24C,1.1016*%
%ADD25RoundRect,0.09387X-0.57013X0.69237X0.57013X0.69237*%
%ADD26RoundRect,0.09424X-1.10368X0.60368X1.10368X0.60368*%
%ADD27RoundRect,0.09336X-0.65333X0.85333X0.65333X0.85333*%
%ADD28RoundRect,0.08669X-0.28168X0.55667X0.28168X0.55667*%
%ADD29RoundRect,0.08002X-0.16X0.56X0.16X0.56*%
%ADD30O,1.20002X2.10002*%
%ADD31O,1.30002X1.90002*%
%ADD32O,0.66159X1.84661*%
%ADD33RoundRect,0.08182X-0.1841X1.25909X0.1841X1.25909*%
%ADD34RoundRect,0.09265X-1.05447X-0.47948X-1.05447X0.47948*%
%ADD35RoundRect,0.09265X-0.47948X-1.05447X-0.47948X1.05447*%
%ADD36RoundRect,0.09224X-0.45468X-0.45468X-0.45468X0.45468*%
%ADD37C,1.6256*%
%ADD38RoundRect,0.09562X-0.76499X-0.76499X-0.76499X0.76499*%
G75*


G04 Pad Start*
G54D10*
G01X608654Y-6165884D03*
G01X608654Y-5965885D03*
G54D11*
G01X442900Y-4787900D03*
G01X242900Y-4787900D03*
G01X985302Y-3343496D03*
G01X785302Y-3343496D03*
G01X976300Y-3568700D03*
G01X776300Y-3568700D03*
G54D10*
G01X939800Y-4281500D03*
G01X939800Y-4481500D03*
G54D11*
G01X2043958Y-4786732D03*
G01X1843959Y-4786732D03*
G01X963600Y-3937000D03*
G01X763600Y-3937000D03*
G54D12*
G01X65100Y-6248400D03*
G01X265100Y-6248400D03*
G54D13*
G01X2011680Y-5854700D03*
G01X1569720Y-5854700D03*
G54D14*
G01X2797353Y-355600D03*
G01X2358847Y-355600D03*
G01X2822753Y-1066800D03*
G01X2384247Y-1066800D03*
G01X2814824Y-715254D03*
G01X2376319Y-715254D03*
G54D15*
G01X1299718Y-5571185D03*
G01X1299718Y-5791200D03*
G54D16*
G01X1744593Y-5571884D03*
G01X1534535Y-5571884D03*
G01X1294935Y-5368985D03*
G01X1504993Y-5368985D03*
G54D18*
G01X2078502Y-4546590D03*
G01X1858488Y-4546590D03*
G54D19*
G01X-203200Y-889000D03*
G54D20*
G01X-203200Y-635000D03*
G54D21*
G01X2006759Y-3818990D03*
G01X2006759Y-3628998D03*
G01X1806759Y-3723994D03*
G01X2686304Y-1636700D03*
G01X2686304Y-1826692D03*
G01X2886304Y-1731696D03*
G54D22*
G01X3003804Y-798500D03*
G01X3193796Y-798500D03*
G01X3098800Y-598500D03*
G54D23*
G01X1016000Y-5957900D03*
G01X1016000Y-6157900D03*
G54D24*
G01X1734403Y-6991629D03*
G01X1904406Y-6991629D03*
G54D25*
G01X1754200Y-5384800D03*
G01X1954200Y-5384800D03*
G01X2067725Y-4307096D03*
G01X1867726Y-4307096D03*
G01X1573200Y-4508500D03*
G01X1373200Y-4508500D03*
G54D23*
G01X1589959Y-4050704D03*
G01X1589959Y-4250704D03*
G54D25*
G01X1208100Y-4127500D03*
G01X1408100Y-4127500D03*
G01X101163Y44999D03*
G01X-98836Y44999D03*
G01X-111536Y-318602D03*
G01X88463Y-318602D03*
G01X2538400Y-1651000D03*
G01X2338400Y-1651000D03*
G01X2931325Y-2091276D03*
G01X2731326Y-2091276D03*
G01X2728900Y76200D03*
G01X2528900Y76200D03*
G01X3031964Y-1114976D03*
G01X3231963Y-1114976D03*
G54D26*
G01X1930400Y-6476987D03*
G01X1930400Y-6726999D03*
G01X1930400Y-6227000D03*
G54D27*
G01X622300Y-4787900D03*
G01X1054100Y-4787900D03*
G01X1231900Y-4787900D03*
G01X1663700Y-4787900D03*
G01X-190500Y-2273300D03*
G01X-622300Y-2273300D03*
G01X-190500Y-1943100D03*
G01X-622300Y-1943100D03*
G01X-190500Y-1612900D03*
G01X-622300Y-1612900D03*
G54D28*
G01X822998Y-6391897D03*
G01X903008Y-6391897D03*
G54D29*
G01X968007Y-6391897D03*
G01X1018019Y-6391897D03*
G01X1068007Y-6391897D03*
G01X1117994Y-6391897D03*
G01X1168006Y-6391897D03*
G01X1217994Y-6391897D03*
G01X1268006Y-6391897D03*
G01X1318019Y-6391897D03*
G54D28*
G01X1383017Y-6391897D03*
G01X1463002Y-6391897D03*
G54D30*
G01X710502Y-6446888D03*
G01X1575499Y-6446888D03*
G54D31*
G01X710502Y-6866903D03*
G01X1575499Y-6866903D03*
G54D32*
G01X215900Y-5710149D03*
G01X342900Y-5710149D03*
G01X469900Y-5710149D03*
G01X596900Y-5710149D03*
G01X723900Y-5710149D03*
G01X850900Y-5710149D03*
G01X977900Y-5710149D03*
G01X1104900Y-5710149D03*
G01X215900Y-5135651D03*
G01X342900Y-5135651D03*
G01X469900Y-5135651D03*
G01X596900Y-5135651D03*
G01X723900Y-5135651D03*
G01X850900Y-5135651D03*
G01X977900Y-5135651D03*
G01X1104900Y-5135651D03*
G54D11*
G01X2043100Y-4064000D03*
G01X1843100Y-4064000D03*
G54D33*
G01X680898Y-3073400D03*
G01X745896Y-3073400D03*
G01X810895Y-3073400D03*
G01X875894Y-3073400D03*
G01X940892Y-3073400D03*
G01X1005891Y-3073400D03*
G01X1070889Y-3073400D03*
G01X1135888Y-3073400D03*
G01X1200887Y-3073400D03*
G01X1265911Y-3073400D03*
G01X1330909Y-3073400D03*
G01X1395908Y-3073400D03*
G01X1460906Y-3073400D03*
G01X1525905Y-3073400D03*
G01X1590904Y-3073400D03*
G01X1655902Y-3073400D03*
G54D23*
G01X1314237Y-5959696D03*
G01X1314237Y-6159696D03*
G54D34*
G01X242989Y-572948D03*
G01X242989Y-699948D03*
G01X242989Y-826948D03*
G01X242989Y-953948D03*
G01X242989Y-1080948D03*
G01X242989Y-1207948D03*
G01X242989Y-1334948D03*
G01X242989Y-1461948D03*
G01X242989Y-1588948D03*
G01X242989Y-1715948D03*
G01X242989Y-1842948D03*
G01X242989Y-1969948D03*
G01X242989Y-2096948D03*
G01X242989Y-2223948D03*
G54D35*
G01X571513Y-2373452D03*
G01X698513Y-2373452D03*
G01X825513Y-2373452D03*
G01X952513Y-2373452D03*
G01X1079513Y-2373452D03*
G01X1206513Y-2373452D03*
G01X1333513Y-2373452D03*
G01X1460513Y-2373452D03*
G01X1587513Y-2373452D03*
G01X1714513Y-2373452D03*
G54D34*
G01X2043011Y-2223948D03*
G01X2043011Y-2096948D03*
G01X2043011Y-1969948D03*
G01X2043011Y-1842948D03*
G01X2043011Y-1715948D03*
G01X2043011Y-1588948D03*
G01X2043011Y-1461948D03*
G01X2043011Y-1334948D03*
G01X2043011Y-1207948D03*
G01X2043011Y-1080948D03*
G01X2043011Y-953948D03*
G01X2043011Y-826948D03*
G01X2043011Y-699948D03*
G01X2043011Y-572948D03*
G54D36*
G01X992975Y-1341044D03*
G01X852996Y-1341044D03*
G01X1133005Y-1341044D03*
G01X1133005Y-1201039D03*
G01X993000Y-1201039D03*
G01X852996Y-1201039D03*
G01X852996Y-1481049D03*
G01X993000Y-1481049D03*
G01X1133005Y-1481049D03*
G54D37*
G01X2286000Y-5676900D03*
G01X2286000Y-5422900D03*
G01X2286000Y-5168900D03*
G01X2286000Y-4914900D03*
G01X2286000Y-4660900D03*
G01X2286000Y-4406900D03*
G01X2286000Y-4152900D03*
G01X2286000Y-3898900D03*
G01X2286000Y-3644900D03*
G01X2286000Y-3390900D03*
G01X2286000Y-3136900D03*
G54D38*
G01X2286000Y-2882900D03*
G54D37*
G01X0Y-2882900D03*
G01X0Y-3136900D03*
G01X0Y-3390900D03*
G01X0Y-3644900D03*
G01X0Y-3898900D03*
G01X0Y-4152900D03*
G01X0Y-4406900D03*
G01X0Y-4660900D03*
G01X0Y-4914900D03*
G01X0Y-5168900D03*
G01X0Y-5422900D03*
G54D38*
G01X0Y-5676900D03*
G04 Pad End*

M02*

